<?xml version="1.0" standalone="no"?>
<!DOCTYPE svg PUBLIC "-//W3C//DTD SVG 20010904//EN"
 "http://www.w3.org/TR/2001/REC-SVG-20010904/DTD/svg10.dtd">
<svg version="1.0" xmlns="http://www.w3.org/2000/svg"
 width="200.000000pt" height="200.000000pt" viewBox="0 0 200.000000 200.000000"
 preserveAspectRatio="xMidYMid meet">
<metadata>
Created by potrace 1.11, written by Peter Selinger 2001-2013
</metadata>
<g transform="translate(0.000000,200.000000) scale(0.100000,-0.100000)"
fill="#000000" stroke="none">
<path d="M838 1885 c-350 -66 -627 -331 -715 -682 -26 -103 -23 -323 6 -428
81 -302 311 -543 606 -634 98 -31 142 -36 290 -35 109 1 144 6 218 28 242 72
431 224 546 438 38 69 76 165 85 213 2 11 9 40 14 64 6 24 9 103 8 175 -3 107
-8 147 -30 219 -99 332 -369 578 -701 642 -73 14 -253 14 -327 0z m289 -60
c337 -48 622 -320 693 -660 21 -96 16 -276 -9 -370 -76 -284 -289 -509 -564
-594 -88 -27 -143 -35 -247 -35 -109 0 -167 9 -258 40 -444 149 -681 620 -533
1060 98 290 363 514 660 558 89 13 176 13 258 1z"/>
<path d="M925 1520 c-77 -116 -161 -313 -181 -423 -2 -17 -7 -33 -9 -37 -12
-19 -16 -165 -6 -227 23 -146 106 -264 204 -289 18 -4 27 -13 28 -28 1 -11 2
-34 3 -51 1 -23 6 -31 24 -33 21 -3 22 0 22 52 0 44 3 56 15 56 29 0 91 39
129 80 124 137 130 382 16 667 -59 149 -154 303 -185 303 -7 0 -34 -31 -60
-70z m124 -100 l18 -35 -28 -30 -29 -30 0 80 c0 84 2 85 39 15z m-84 -20 c0
-38 -3 -70 -6 -70 -6 0 -49 56 -49 64 0 10 42 76 48 76 4 0 7 -31 7 -70z m154
-150 c-5 -8 -31 -40 -58 -70 l-50 -55 -1 61 c0 58 2 64 41 108 l42 47 17 -38
c11 -23 14 -44 9 -53z m-191 40 c27 -31 34 -48 36 -89 1 -28 0 -55 -3 -59 -3
-5 -30 20 -60 55 l-54 64 16 35 c9 19 20 34 24 33 5 0 23 -18 41 -39z m-25
-170 c52 -62 58 -74 61 -120 1 -28 -1 -53 -5 -55 -4 -3 -35 27 -70 67 -93 104
-92 101 -78 147 7 22 17 37 23 34 6 -2 37 -36 69 -73z m263 32 c11 -39 6 -47
-133 -202 l-23 -25 0 61 c0 56 3 63 43 110 103 120 95 116 113 56z m-290 -202
l87 -101 1 -60 1 -60 -35 38 c-102 110 -160 182 -160 200 0 24 11 83 16 83 1
0 42 -45 90 -100z m324 50 c8 -46 8 -47 -104 -175 -38 -44 -74 -84 -78 -90 -4
-5 -8 19 -8 53 l0 61 88 100 c48 54 89 97 91 95 2 -2 7 -22 11 -44z m-340
-230 c36 -41 73 -84 82 -94 10 -11 18 -27 19 -35 0 -9 2 -24 4 -33 5 -26 -14
-22 -67 11 -27 17 -57 48 -73 75 -24 42 -55 132 -55 164 0 16 -3 19 90 -88z
m336 49 c-11 -69 -46 -136 -92 -179 -24 -22 -48 -40 -53 -40 -5 0 -16 -3 -25
-6 -13 -5 -16 1 -16 25 0 26 18 52 92 136 50 58 94 105 96 105 3 0 2 -19 -2
-41z"/>
</g>
</svg>
